<svg xmlns="http://www.w3.org/2000/svg">
  <symbol id="icon-menu" viewBox="0 0 24 24"><path d="M4 7h16M4 12h16M4 17h16"/></symbol>
  <symbol id="icon-close" viewBox="0 0 24 24"><path d="m6 6 12 12M18 6 6 18"/></symbol>
  <symbol id="icon-arrow" viewBox="0 0 24 24"><path d="m9 18 6-6-6-6"/></symbol>
  <symbol id="icon-home" viewBox="0 0 24 24"><path d="m4 11 8-7 8 7v9h-6v-6h-4v6H4z"/></symbol>
  <symbol id="icon-plus" viewBox="0 0 24 24"><path d="M12 5v14M5 12h14"/></symbol>
  <symbol id="icon-log" viewBox="0 0 24 24"><path d="M5 4h14v16H5zM8 8h8M8 12h5M8 16h8"/></symbol>
  <symbol id="icon-plan" viewBox="0 0 24 24"><rect x="4" y="5" width="16" height="15" rx="2"/><path d="M8 3v4M16 3v4M4 9h16M8 13h3M8 16h7"/></symbol>
  <symbol id="icon-user" viewBox="0 0 24 24"><circle cx="12" cy="8" r="4"/><path d="M4 21a8 8 0 0 1 16 0"/></symbol>
  <symbol id="icon-message" viewBox="0 0 24 24"><path d="M5 6h14a2 2 0 0 1 2 2v7a2 2 0 0 1-2 2H9l-4 3v-3H5a2 2 0 0 1-2-2V8a2 2 0 0 1 2-2z"/><path d="M8 10h8M8 13h5"/></symbol>
  <symbol id="icon-bell" viewBox="0 0 24 24"><path d="M18 8a6 6 0 0 0-12 0c0 7-3 7-3 9h18c0-2-3-2-3-9M10 21h4"/></symbol>
  <symbol id="icon-search" viewBox="0 0 24 24"><circle cx="11" cy="11" r="7"/><path d="m16 16 5 5"/></symbol>
  <symbol id="icon-check" viewBox="0 0 24 24"><path d="m5 12 4 4L19 6"/></symbol>
  <symbol id="icon-clock" viewBox="0 0 24 24"><circle cx="12" cy="12" r="9"/><path d="M12 7v5l3 2"/></symbol>
  <symbol id="icon-star" viewBox="0 0 24 24"><path d="m12 3 2.7 5.5 6.1.9-4.4 4.3 1 6.1-5.4-2.9-5.4 2.9 1-6.1-4.4-4.3 6.1-.9z"/></symbol>
  <symbol id="icon-utensils" viewBox="0 0 24 24"><path d="M6 3v8M3 3v5a3 3 0 0 0 6 0V3M6 11v10M16 3v18M16 3c3 2 4 5 4 8h-4"/></symbol>
  <symbol id="icon-dumbbell" viewBox="0 0 24 24"><path d="M6 9v6M3 10v4M18 9v6M21 10v4M6 12h12"/></symbol>
  <symbol id="icon-profile" viewBox="0 0 24 24"><path d="M5 4h14v16H5zM8 8h8M8 12h8M8 16h5"/></symbol>
  <symbol id="icon-upload" viewBox="0 0 24 24"><path d="M12 15V4M8 8l4-4 4 4M5 14v5h14v-5"/></symbol>
  <symbol id="icon-file" viewBox="0 0 24 24"><path d="M6 3h8l4 4v14H6zM14 3v5h5"/></symbol>
  <symbol id="icon-shield" viewBox="0 0 24 24"><path d="M12 3 5 6v5c0 5 3 8 7 10 4-2 7-5 7-10V6z"/><path d="m9 12 2 2 4-5"/></symbol>
  <symbol id="icon-eye" viewBox="0 0 24 24"><path d="M2 12s4-6 10-6 10 6 10 6-4 6-10 6S2 12 2 12"/><circle cx="12" cy="12" r="3"/></symbol>
  <symbol id="icon-edit" viewBox="0 0 24 24"><path d="m4 20 4.5-1 10-10a2.1 2.1 0 0 0-3-3l-10 10zM14 7l3 3"/></symbol>
  <symbol id="icon-trash" viewBox="0 0 24 24"><path d="M4 7h16M9 3h6l1 4H8zM7 7l1 14h8l1-14M10 11v6M14 11v6"/></symbol>
  <symbol id="icon-info" viewBox="0 0 24 24"><circle cx="12" cy="12" r="9"/><path d="M12 11v6M12 7h.01"/></symbol>
  <symbol id="icon-reports" viewBox="0 0 24 24"><path d="M5 20V10M12 20V4M19 20v-7"/></symbol>
  <symbol id="icon-ai" viewBox="0 0 24 24"><circle cx="6" cy="12" r="2"/><circle cx="18" cy="6" r="2"/><circle cx="18" cy="18" r="2"/><path d="m8 11 8-4M8 13l8 4"/></symbol>
  <symbol id="icon-lock" viewBox="0 0 24 24"><rect x="5" y="10" width="14" height="11" rx="2"/><path d="M8 10V7a4 4 0 0 1 8 0v3"/></symbol>
  <symbol id="icon-chevron-down" viewBox="0 0 24 24"><path d="m6 9 6 6 6-6"/></symbol>
</svg>
